<?xml version="1.0" encoding="UTF-8"?>
<svg id="Layer_1" data-name="Layer 1" xmlns="http://www.w3.org/2000/svg" version="1.1" viewBox="0 0 792 204">
  <defs>
    <style>
      .cls-1 {
        fill: #f6921e;
        stroke-width: 0px;
      }
    </style>
  </defs>
  <g>
    <rect class="cls-1" x="570.39" y="67.35" width="46.5" height="4.92"/>
    <rect class="cls-1" x="626.39" y="67.35" width="12.57" height="4.92"/>
    <rect class="cls-1" x="593.64" y="88.93" width="46.5" height="4.92"/>
    <rect class="cls-1" x="571.44" y="88.93" width="12.08" height="4.92"/>
    <rect class="cls-1" x="606.84" y="78.24" width="40.5" height="4.92"/>
    <rect class="cls-1" x="581.84" y="78.24" width="12.85" height="4.92"/>
    <rect class="cls-1" x="579.61" y="99.61" width="34.91" height="4.92"/>
    <rect class="cls-1" x="623.6" y="99.61" width="23.74" height="4.92"/>
    <path class="cls-1" d="M631.59,124.37c-4.57,0-8.29,3.72-8.29,8.29s3.72,8.29,8.29,8.29,8.29-3.72,8.29-8.29-3.72-8.29-8.29-8.29ZM631.59,136.03c-1.86,0-3.37-1.51-3.37-3.37s1.51-3.37,3.37-3.37,3.37,1.51,3.37,3.37-1.51,3.37-3.37,3.37Z"/>
    <path class="cls-1" d="M727.27,124.37c-4.57,0-8.29,3.72-8.29,8.29s3.72,8.29,8.29,8.29,8.29-3.72,8.29-8.29-3.72-8.29-8.29-8.29ZM727.27,136.03c-1.86,0-3.37-1.51-3.37-3.37s1.51-3.37,3.37-3.37,3.37,1.51,3.37,3.37-1.51,3.37-3.37,3.37Z"/>
    <path class="cls-1" d="M756.35,125.25v-29.96l-24.1-27.94h-29.11v-14.94h-108.54v9.84h4.92v-4.92h98.7v70.36h4.92v-55.42h26.86l21.43,24.85v28.11h-6.76c-2.9-6.75-9.6-11.49-17.4-11.49-10.44,0-18.93,8.49-18.93,18.93,0,.8.07,1.59.16,2.37h-58.16c.1-.78.16-1.57.16-2.37,0-10.44-8.49-18.93-18.93-18.93-7.8,0-14.51,4.74-17.4,11.49h-14.67v-15.2h-4.92v15.21c-4.01.06-7.25,3.33-7.25,7.35s3.3,7.36,7.36,7.36h19.42c2.86,6.83,9.61,11.63,17.46,11.63s14.6-4.81,17.46-11.63h60.76c2.86,6.83,9.61,11.63,17.46,11.63s14.6-4.81,17.46-11.63h11.4c4.06,0,7.36-3.3,7.36-7.36s-3.19-7.23-7.15-7.34ZM594.71,135.03c-1.35,0-2.44-1.1-2.44-2.44s1.09-2.44,2.44-2.44h18.14c-.11.82-.19,1.66-.19,2.51,0,.8.07,1.59.16,2.37h-18.12ZM631.59,146.67c-7.72,0-14-6.28-14-14s6.28-14,14-14,14,6.28,14,14-6.28,14-14,14ZM727.27,146.67c-7.72,0-14-6.28-14-14s6.28-14,14-14,14,6.28,14,14-6.28,14-14,14ZM756.14,135.03h-10.1c.1-.78.16-1.57.16-2.37,0-.85-.08-1.69-.19-2.51h10.13c1.35,0,2.44,1.1,2.44,2.44s-1.1,2.44-2.44,2.44Z"/>
    <path class="cls-1" d="M744.13,98.38l-15.68-19.5h-21.08v27.55h36.76v-8.04ZM739.21,101.5h-26.92v-17.7h13.8l13.12,16.32v1.39Z"/>
  </g>
  <g>
    <path class="cls-1" d="M28.5,139.99V41.5h5.88v92.71h12.32V41.5h5.88v92.71h12.32V41.5h5.88v98.48H28.5Z"/>
    <path class="cls-1" d="M84.6,139.99v-75.97h8.35c4.29,0,7.59,1.41,9.92,4.22,2.33,2.81,3.49,6.89,3.49,12.24v5.91c0,3.66-.59,6.73-1.78,9.22-1.19,2.49-2.69,4.24-4.52,5.28,2.1.84,3.78,2.51,5.06,4.99,1.28,2.49,1.92,5.65,1.92,9.5v8.16c0,5.35-1.16,9.43-3.49,12.24-2.33,2.81-5.63,4.22-9.92,4.22h-9.03ZM92.95,98.2c2.55,0,4.49-.91,5.82-2.74,1.32-1.83,1.98-4.76,1.98-8.79v-6.33c0-3.85-.66-6.68-1.98-8.51-1.32-1.83-3.26-2.74-5.82-2.74h-2.74v29.12h2.74ZM93.64,134.92c2.55,0,4.49-.91,5.82-2.74,1.32-1.83,1.98-4.66,1.98-8.51v-8.58c0-3.94-.66-6.85-1.98-8.72-1.32-1.87-3.26-2.81-5.82-2.81h-3.42v31.37h3.42Z"/>
    <path class="cls-1" d="M118.13,139.99v-75.97h5.61v42.35c0,2.63-.07,5.82-.21,9.57-.14,3.75-.3,7.88-.48,12.38h.27l14.23-64.3h6.43v75.97h-5.61v-43.75c0-4.59.23-11.49.68-20.68h-.27l-14.23,64.44h-6.43Z"/>
    <path class="cls-1" d="M150.97,152.37v-17.73h2.87c1.09-1.97,2.08-5.63,2.94-10.98.87-5.35,1.53-12.14,1.99-20.4.46-8.25.68-17.59.68-28v-11.26h20.25v70.63h4.52v17.73h-5.61v-12.38h-22.03v12.38h-5.61ZM159.46,134.64h14.64v-65.28h-9.03v6.75c0,9.29-.23,17.96-.68,26.03-.46,8.07-1.12,14.94-1.98,20.61-.87,5.68-1.85,9.64-2.94,11.89Z"/>
    <path class="cls-1" d="M192.98,139.99v-75.97h5.61v35.03h3.97l9.99-35.03h5.61l-10.81,37.28,11.22,38.69h-5.75l-10.4-35.88h-3.83v35.88h-5.61Z"/>
    <path class="cls-1" d="M226.37,139.99v-75.97h5.61v42.35c0,2.63-.07,5.82-.21,9.57-.14,3.75-.3,7.88-.48,12.38h.27l14.23-64.3h6.43v75.97h-5.61v-43.75c0-4.59.23-11.49.68-20.68h-.27l-14.23,64.44h-6.43Z"/>
    <path class="cls-1" d="M265.37,139.99v-75.97h5.61v42.35c0,2.63-.07,5.82-.21,9.57-.14,3.75-.3,7.88-.48,12.38h.27l14.23-64.3h6.43v75.97h-5.61v-43.75c0-4.59.23-11.49.68-20.68h-.27l-14.23,64.44h-6.43ZM278.23,57.26c-3.28,0-5.75-.89-7.39-2.67-1.64-1.78-2.46-4.45-2.46-8.02v-.56h5.2v.56c0,2.06.39,3.61,1.16,4.64.77,1.03,1.94,1.55,3.49,1.55,1.64,0,2.85-.49,3.63-1.48.77-.98,1.16-2.55,1.16-4.71v-.56h5.2v.56c0,3.57-.82,6.24-2.46,8.02-1.64,1.78-4.15,2.67-7.53,2.67Z"/>
    <path class="cls-1" d="M325.16,139.99V41.5h24.91v98.48h-5.88V47.27h-13.14v92.72h-5.88Z"/>
    <path class="cls-1" d="M374.43,140.97c-3.74,0-6.59-1.27-8.55-3.8-1.96-2.53-2.94-6.33-2.94-11.4v-47.55c0-4.97,1.03-8.74,3.08-11.33,2.05-2.58,4.9-3.87,8.55-3.87s6.59,1.27,8.55,3.8c1.96,2.53,2.94,6.33,2.94,11.4v25.32h-17.51v22.51c0,3.38.5,5.86,1.5,7.46,1,1.6,2.51,2.39,4.52,2.39s3.51-.77,4.52-2.32c1-1.55,1.5-4.06,1.5-7.53v-9.71h5.47v9.43c0,4.97-1,8.75-3.01,11.33-2.01,2.58-4.88,3.87-8.62,3.87ZM368.54,98.48h12.04v-20.54c0-3.38-.53-5.86-1.57-7.46-1.05-1.59-2.53-2.39-4.45-2.39s-3.51.77-4.52,2.32c-1,1.55-1.5,4.06-1.5,7.53v20.54Z"/>
    <path class="cls-1" d="M397.69,162.5V63.45h3.28l1.78,5.77c1-1.97,2.28-3.49,3.83-4.57,1.55-1.08,3.37-1.62,5.47-1.62,2.83,0,5.06,1.1,6.7,3.31,1.64,2.2,2.46,5.37,2.46,9.5v50.65c0,4.6-.91,8.16-2.74,10.69-1.83,2.53-4.33,3.8-7.53,3.8-1.64,0-3.12-.4-4.45-1.2-1.32-.79-2.39-1.9-3.22-3.31v26.03h-5.61ZM409.87,135.91c1.82,0,3.24-.8,4.24-2.39,1-1.59,1.5-3.94,1.5-7.03v-50.65c0-2.62-.43-4.57-1.3-5.84-.87-1.27-2.17-1.9-3.9-1.9s-3.2.7-4.38,2.11c-1.19,1.41-2.1,3.47-2.74,6.19v51.63c.55,2.63,1.35,4.6,2.4,5.91,1.05,1.31,2.44,1.97,4.17,1.97Z"/>
    <path class="cls-1" d="M444.49,140.97c-3.74,0-6.59-1.27-8.55-3.8-1.96-2.53-2.94-6.33-2.94-11.4v-47.55c0-4.97,1.03-8.74,3.08-11.33,2.05-2.58,4.9-3.87,8.55-3.87s6.59,1.27,8.55,3.8c1.96,2.53,2.94,6.33,2.94,11.4v25.32h-17.51v22.51c0,3.38.5,5.86,1.5,7.46,1,1.6,2.51,2.39,4.52,2.39s3.51-.77,4.52-2.32c1-1.55,1.5-4.06,1.5-7.53v-9.71h5.47v9.43c0,4.97-1,8.75-3.01,11.33-2.01,2.58-4.88,3.87-8.62,3.87ZM438.61,98.48h12.04v-20.54c0-3.38-.53-5.86-1.57-7.46-1.05-1.59-2.53-2.39-4.45-2.39s-3.51.77-4.52,2.32c-1,1.55-1.5,4.06-1.5,7.53v20.54Z"/>
    <path class="cls-1" d="M465.01,55.15c-1.28,0-2.3-.4-3.08-1.2-.77-.8-1.16-1.9-1.16-3.31,0-1.5.39-2.62,1.16-3.38.77-.75,1.8-1.13,3.08-1.13,1.37,0,2.44.38,3.22,1.13.77.75,1.16,1.88,1.16,3.38,0,1.41-.39,2.51-1.16,3.31-.78.8-1.85,1.2-3.22,1.2ZM467.75,139.99v-75.97h5.61v75.97h-5.61ZM475.96,55.15c-1.37,0-2.44-.4-3.22-1.2-.78-.8-1.16-1.9-1.16-3.31,0-1.5.39-2.62,1.16-3.38.77-.75,1.85-1.13,3.22-1.13,1.28,0,2.3.38,3.08,1.13.77.75,1.16,1.88,1.16,3.38,0,1.41-.39,2.51-1.16,3.31-.78.8-1.8,1.2-3.08,1.2Z"/>
    <path class="cls-1" d="M495.53,140.97c-3.56,0-6.34-1.31-8.35-3.94-2.01-2.62-3.01-6.38-3.01-11.26v-8.3h5.61v8.58c0,3.38.48,5.86,1.44,7.46.96,1.6,2.4,2.39,4.31,2.39s3.35-.8,4.31-2.39c.96-1.59,1.44-4.08,1.44-7.46v-10.97c0-4.13-.71-7.13-2.12-9-1.41-1.87-3.54-2.81-6.36-2.81h-3.56v-5.07h3.7c2.74,0,4.77-.89,6.09-2.67,1.32-1.78,1.98-4.74,1.98-8.86v-8.72c0-3.38-.46-5.86-1.37-7.46-.91-1.59-2.28-2.39-4.11-2.39-1.91,0-3.31.82-4.17,2.46-.87,1.64-1.3,4.1-1.3,7.39v7.32h-5.61v-7.04c0-4.88.98-8.63,2.94-11.25,1.96-2.62,4.67-3.94,8.14-3.94s6.18,1.31,8.14,3.94c1.96,2.63,2.94,6.38,2.94,11.25v8.16c0,3.57-.55,6.54-1.64,8.93-1.1,2.39-2.74,4.2-4.93,5.42,2.19,1.13,3.85,2.93,4.99,5.42,1.14,2.49,1.71,5.56,1.71,9.21v10.41c0,4.88-.98,8.63-2.94,11.26-1.96,2.63-4.72,3.94-8.28,3.94Z"/>
    <path class="cls-1" d="M510.44,152.37v-17.73h2.87c1.09-1.97,2.07-5.63,2.94-10.98.87-5.35,1.53-12.14,1.98-20.4.46-8.25.68-17.59.68-28v-11.26h20.25v70.63h4.52v17.73h-5.61v-12.38h-22.03v12.38h-5.61ZM518.93,134.64h14.64v-65.28h-9.03v6.75c0,9.29-.23,17.96-.68,26.03-.46,8.07-1.12,14.94-1.98,20.61-.87,5.68-1.85,9.64-2.94,11.89Z"/>
  </g>
</svg>