<?xml version="1.0" encoding="UTF-8"?>
<svg id="Layer_1" data-name="Layer 1" xmlns="http://www.w3.org/2000/svg" version="1.1" viewBox="0 0 792 612">
  <defs>
    <style>
      .cls-1 {
        fill: #f7941d;
        stroke-width: 0px;
      }
    </style>
  </defs>
  <g>
    <polygon class="cls-1" points="716.8 326.78 713.8 326.78 713.8 283.9 653.65 283.9 653.65 286.9 650.65 286.9 650.65 280.9 716.8 280.9 716.8 326.78"/>
    <polygon class="cls-1" points="749.23 326.78 746.23 326.78 746.23 308.15 733.17 293.01 716.07 293.01 716.07 290.01 734.54 290.01 749.23 307.03 749.23 326.78"/>
    <rect class="cls-1" x="635.9" y="290.01" width="28.34" height="3"/>
    <rect class="cls-1" x="670.02" y="290.01" width="7.66" height="3"/>
    <rect class="cls-1" x="650.07" y="303.16" width="28.34" height="3"/>
    <rect class="cls-1" x="636.53" y="303.16" width="7.36" height="3"/>
    <rect class="cls-1" x="658.11" y="296.65" width="24.68" height="3"/>
    <rect class="cls-1" x="642.88" y="296.65" width="7.83" height="3"/>
    <rect class="cls-1" x="641.51" y="309.67" width="21.28" height="3"/>
    <rect class="cls-1" x="668.32" y="309.67" width="14.47" height="3"/>
    <rect class="cls-1" x="650.65" y="316.02" width="3" height="10.76"/>
    <path class="cls-1" d="M673.19,341.34c-6.36,0-11.53-5.17-11.53-11.53s5.17-11.53,11.53-11.53,11.53,5.17,11.53,11.53-5.17,11.53-11.53,11.53ZM673.19,321.28c-4.71,0-8.53,3.83-8.53,8.53s3.83,8.53,8.53,8.53,8.53-3.83,8.53-8.53-3.83-8.53-8.53-8.53Z"/>
    <path class="cls-1" d="M673.19,334.86c-2.79,0-5.05-2.27-5.05-5.05s2.27-5.05,5.05-5.05,5.05,2.27,5.05,5.05-2.27,5.05-5.05,5.05ZM673.19,327.76c-1.13,0-2.05.92-2.05,2.05s.92,2.05,2.05,2.05,2.05-.92,2.05-2.05-.92-2.05-2.05-2.05Z"/>
    <path class="cls-1" d="M731.5,341.34c-6.36,0-11.53-5.17-11.53-11.53s5.17-11.53,11.53-11.53,11.53,5.17,11.53,11.53-5.17,11.53-11.53,11.53ZM731.5,321.28c-4.71,0-8.53,3.83-8.53,8.53s3.83,8.53,8.53,8.53,8.53-3.83,8.53-8.53-3.83-8.53-8.53-8.53Z"/>
    <path class="cls-1" d="M731.5,334.86c-2.79,0-5.05-2.27-5.05-5.05s2.27-5.05,5.05-5.05,5.05,2.27,5.05,5.05-2.27,5.05-5.05,5.05ZM731.5,327.76c-1.13,0-2.05.92-2.05,2.05s.92,2.05,2.05,2.05,2.05-.92,2.05-2.05-.92-2.05-2.05-2.05Z"/>
    <rect class="cls-1" x="682.79" y="331.25" width="38.68" height="3"/>
    <path class="cls-1" d="M663.16,334.25h-12.44c-2.47,0-4.49-2.01-4.49-4.49s2.01-4.49,4.49-4.49h12.44v3h-12.44c-.82,0-1.49.67-1.49,1.49s.67,1.49,1.49,1.49h12.44v3Z"/>
    <path class="cls-1" d="M749.09,334.25h-7.69v-3h7.69c.82,0,1.49-.67,1.49-1.49s-.67-1.49-1.49-1.49h-7.94v-3h7.94c2.47,0,4.49,2.01,4.49,4.49s-2.01,4.49-4.49,4.49Z"/>
    <path class="cls-1" d="M741.78,313.82h-22.4v-16.79h12.85l9.56,11.89v4.9h0ZM722.38,310.82h16.4v-.84l-7.99-9.94h-8.41v10.79h0Z"/>
  </g>
  <g>
    <path class="cls-1" d="M45.88,276.7h4.84v49.67h19.72v-49.67h4.84v49.67h19.72v-49.67h4.84v54.14h-53.97v-54.14h.01Z"/>
    <path class="cls-1" d="M110.52,330.84v-38.88h15.27c4.19,0,7.5.86,9.93,2.58,2.43,1.72,3.64,4.18,3.64,7.38,0,2.3-.64,4.15-1.91,5.54s-2.98,2.32-5.12,2.78c1.51.27,2.89.8,4.13,1.6,1.25.8,2.25,1.87,3,3.22.75,1.34,1.13,2.97,1.13,4.89,0,2.16-.51,4.05-1.54,5.69-1.02,1.63-2.47,2.91-4.35,3.83-1.87.92-4.09,1.38-6.66,1.38h-17.53,0ZM114.94,308.56h11.27c2.64,0,4.72-.54,6.24-1.63s2.28-2.67,2.28-4.72c0-1.91-.78-3.36-2.33-4.34-1.56-.98-3.76-1.47-6.61-1.47h-10.85v12.17h0ZM114.94,326.4h13.11c2.43,0,4.33-.6,5.73-1.8,1.39-1.2,2.08-2.84,2.08-4.92s-.65-3.86-1.96-5.1c-1.31-1.25-3.08-1.87-5.32-1.87h-13.64v13.7h0Z"/>
    <path class="cls-1" d="M178.38,330.84h-4.59v-31.03h-.18l-20.64,31.03h-4.52v-38.88h4.59v31.1h.18l20.67-31.1h4.49v38.88Z"/>
    <path class="cls-1" d="M184.21,342.39v-16.02h3.39c.85-.99,1.59-2.04,2.23-3.14s1.18-2.37,1.64-3.8.86-3.09,1.2-5c.34-1.9.63-4.12.87-6.67l1.41-15.81h23.43v34.41h5.83v16.02h-4.59v-11.55h-30.78v11.55h-4.63ZM192.94,326.37h20.85v-29.94h-14.63l-1.1,11.34c-.38,4.14-.95,7.74-1.71,10.79s-1.9,5.66-3.41,7.81h0Z"/>
    <path class="cls-1" d="M230.04,330.84v-38.88h4.59v17.41h4.56l14.53-17.41h5.83l-15.8,19,16.15,19.88h-5.83l-13.85-17h-5.58v17h-4.6Z"/>
    <path class="cls-1" d="M295.04,330.84h-4.59v-31.03h-.18l-20.64,31.03h-4.52v-38.88h4.59v31.1h.18l20.67-31.1h4.49v38.88Z"/>
    <path class="cls-1" d="M334.72,330.84h-4.59v-31.03h-.18l-20.64,31.03h-4.52v-38.88h4.59v31.1h.18l20.67-31.1h4.49v38.88ZM319.74,286.18c-1.84,0-3.49-.45-4.97-1.34-1.47-.9-2.65-2.1-3.53-3.62-.88-1.51-1.33-3.19-1.33-5.03h3.6c0,1.84.59,3.37,1.78,4.58s2.67,1.82,4.44,1.82,3.28-.61,4.47-1.82c1.19-1.21,1.78-2.74,1.78-4.58h3.57c0,1.84-.43,3.52-1.29,5.03-.86,1.51-2.03,2.72-3.52,3.62s-3.16,1.34-5.02,1.34h.02Z"/>
    <path class="cls-1" d="M402.9,276.7v54.14h-4.81v-49.67h-29.83v49.67h-4.84v-54.14h39.48,0Z"/>
    <path class="cls-1" d="M428.73,331.64c-3.53,0-6.59-.87-9.17-2.6-2.58-1.73-4.57-4.12-5.97-7.16s-2.1-6.5-2.1-10.37.72-7.41,2.16-10.46,3.42-5.45,5.96-7.19c2.53-1.74,5.46-2.62,8.78-2.62,2.43,0,4.66.47,6.7,1.4s3.8,2.27,5.3,4.01,2.66,3.83,3.48,6.27c.82,2.43,1.24,5.15,1.24,8.16v1.6h-31.03v-4.14h28.41l-1.98,1.38c0-2.83-.51-5.33-1.52-7.5-1.01-2.17-2.43-3.86-4.24-5.07-1.81-1.21-3.94-1.82-6.36-1.82s-4.6.62-6.45,1.87-3.29,2.97-4.31,5.16-1.54,4.73-1.54,7.61v1.93c0,2.98.51,5.62,1.54,7.92,1.03,2.3,2.49,4.09,4.38,5.38,1.9,1.28,4.15,1.93,6.77,1.93,1.86,0,3.54-.33,5.04-.98,1.5-.65,2.76-1.56,3.78-2.71,1.03-1.15,1.76-2.48,2.21-3.98l4.56.33c-.52,2.28-1.51,4.29-2.99,6.05-1.47,1.76-3.29,3.13-5.44,4.12-2.16.99-4.55,1.49-7.19,1.49h-.02Z"/>
    <path class="cls-1" d="M452.62,346.03v-54.07h4.49v7.38h.18c.66-1.55,1.59-2.92,2.79-4.12,1.2-1.2,2.63-2.15,4.29-2.85s3.48-1.05,5.46-1.05c3.2,0,6.03.84,8.46,2.53s4.35,4.03,5.73,7.05,2.07,6.53,2.07,10.55-.69,7.51-2.07,10.54-3.28,5.38-5.71,7.07c-2.43,1.68-5.25,2.53-8.48,2.53-1.98,0-3.78-.34-5.39-1.04-1.61-.69-3.02-1.64-4.21-2.85s-2.15-2.6-2.88-4.18h-.14v22.53h-4.59v-.02ZM469.23,327.24c2.4,0,4.52-.64,6.36-1.91s3.27-3.09,4.29-5.45c1.02-2.36,1.54-5.19,1.54-8.48s-.51-6.09-1.54-8.45c-1.03-2.36-2.45-4.18-4.28-5.45-1.83-1.27-3.95-1.91-6.38-1.91s-4.7.65-6.54,1.96-3.25,3.15-4.24,5.52-1.48,5.15-1.48,8.32.49,5.95,1.48,8.34c.99,2.39,2.4,4.23,4.24,5.54s4.02,1.96,6.54,1.96h.01Z"/>
    <path class="cls-1" d="M508.92,331.64c-3.53,0-6.59-.87-9.17-2.6-2.58-1.73-4.57-4.12-5.97-7.16s-2.1-6.5-2.1-10.37.72-7.41,2.16-10.46,3.42-5.45,5.96-7.19c2.53-1.74,5.46-2.62,8.78-2.62,2.43,0,4.66.47,6.7,1.4s3.8,2.27,5.3,4.01c1.5,1.74,2.66,3.83,3.48,6.27s1.24,5.15,1.24,8.16v1.6h-31.03v-4.14h28.41l-1.98,1.38c0-2.83-.51-5.33-1.52-7.5s-2.43-3.86-4.24-5.07c-1.81-1.21-3.93-1.82-6.36-1.82s-4.6.62-6.45,1.87-3.29,2.97-4.31,5.16c-1.03,2.19-1.54,4.73-1.54,7.61v1.93c0,2.98.51,5.62,1.54,7.92,1.02,2.3,2.49,4.09,4.38,5.38s4.15,1.93,6.77,1.93c1.86,0,3.54-.33,5.04-.98,1.5-.65,2.76-1.56,3.78-2.71s1.76-2.48,2.21-3.98l4.56.33c-.52,2.28-1.51,4.29-2.99,6.05-1.47,1.76-3.29,3.13-5.44,4.12-2.16.99-4.55,1.49-7.19,1.49h-.02Z"/>
    <path class="cls-1" d="M527.83,283.82c-.92,0-1.7-.33-2.35-1-.65-.67-.97-1.47-.97-2.42s.33-1.71.99-2.38,1.44-1,2.33-1,1.7.33,2.33,1c.64.67.95,1.46.95,2.38s-.32,1.75-.95,2.42c-.64.67-1.41,1-2.33,1h0ZM532.81,330.84v-38.88h4.59v38.88h-4.59ZM542.46,283.82c-.92,0-1.7-.33-2.35-1-.65-.67-.97-1.47-.97-2.42s.32-1.71.97-2.38c.65-.67,1.43-1,2.35-1s1.7.33,2.33,1c.64.67.95,1.46.95,2.38s-.32,1.75-.95,2.42c-.64.67-1.41,1-2.33,1Z"/>
    <path class="cls-1" d="M559.07,331.38c-2.73,0-5.17-.48-7.3-1.44s-3.8-2.27-5.02-3.94c-1.21-1.67-1.83-3.57-1.86-5.7h4.59c.05,2.11.96,3.8,2.74,5.09,1.78,1.28,4.05,1.93,6.8,1.93s5.19-.68,6.94-2.04c1.75-1.36,2.63-3.08,2.63-5.16,0-2.23-.97-4.01-2.9-5.36-1.93-1.34-4.52-2.02-7.78-2.02h-2.05v-3.82h2.05c2.8,0,5.08-.63,6.82-1.89s2.62-2.93,2.62-5.01-.76-3.61-2.28-4.87-3.54-1.89-6.06-1.89-4.58.62-6.24,1.87-2.5,2.93-2.53,5.03h-4.45c.05-2.13.65-4.02,1.8-5.67,1.15-1.65,2.73-2.93,4.72-3.85s4.24-1.38,6.73-1.38,4.77.47,6.68,1.4,3.4,2.19,4.49,3.78c1.08,1.59,1.63,3.36,1.63,5.32,0,2.21-.7,4.1-2.1,5.69-1.4,1.59-3.3,2.65-5.71,3.18v.11c2.87.44,5.12,1.53,6.75,3.27s2.44,3.84,2.44,6.29c0,2.11-.61,4-1.82,5.67s-2.89,2.99-5.02,3.96-4.58,1.45-7.33,1.45h.02Z"/>
    <path class="cls-1" d="M576.64,342.39v-16.02h3.39c.85-.99,1.59-2.04,2.23-3.14.64-1.1,1.18-2.37,1.64-3.8s.86-3.09,1.2-5c.34-1.9.63-4.12.87-6.67l1.41-15.81h23.43v34.41h5.83v16.02h-4.59v-11.55h-30.78v11.55h-4.63,0ZM585.37,326.37h20.85v-29.94h-14.63l-1.1,11.34c-.38,4.14-.95,7.74-1.71,10.79s-1.9,5.66-3.41,7.81Z"/>
  </g>
</svg>